<?xml version="1.0" encoding="utf-8"?>
<!-- Generator: Adobe Illustrator 19.0.0, SVG Export Plug-In . SVG Version: 6.00 Build 0)  -->
<svg version="1.1" xmlns="http://www.w3.org/2000/svg" xmlns:xlink="http://www.w3.org/1999/xlink" x="0px" y="0px"
	 viewBox="-521 846.6 492 357.4" style="enable-background:new -521 846.6 492 357.4;" xml:space="preserve">
<style type="text/css">
	.st0{fill:#FFFFFF;}
	.st1{fill:url(#SVGID_1_);}
	.st2{fill:url(#SVGID_2_);}
	.st3{fill:url(#SVGID_3_);}
	.st4{fill:url(#SVGID_4_);}
	.st5{fill:url(#SVGID_5_);}
	.st6{fill:url(#SVGID_6_);}
	.st7{fill:url(#SVGID_7_);}
	.st8{fill:none;stroke:#FFFFFF;stroke-width:0.5669;stroke-miterlimit:10;}
	.st9{fill:url(#light-path-6_2_);}
	.st10{fill:url(#light-path-5_2_);}
	.st11{fill:url(#SVGID_8_);}
	.st12{fill:url(#SVGID_9_);}
	.st13{fill:url(#SVGID_10_);}
	.st14{fill:url(#SVGID_11_);}
	.st15{fill:url(#light-path-6_3_);stroke:#000000;stroke-miterlimit:10;}
	.st16{fill:url(#light-path-5_3_);stroke:#000000;stroke-miterlimit:10;}
	.st17{fill:url(#SVGID_12_);stroke:#000000;stroke-miterlimit:10;}
	.st18{fill:url(#SVGID_13_);stroke:#000000;stroke-miterlimit:10;}
	.st19{fill:url(#SVGID_14_);stroke:#000000;stroke-miterlimit:10;}
	.st20{fill:url(#SVGID_15_);stroke:#000000;stroke-miterlimit:10;}
	.st21{fill:none;stroke:#000000;stroke-width:0.5669;stroke-miterlimit:10;}
	.st22{fill:url(#SVGID_16_);stroke:#000000;stroke-miterlimit:10;}
	.st23{fill:url(#SVGID_17_);stroke:#000000;stroke-miterlimit:10;}
	.st24{fill:url(#SVGID_18_);stroke:#000000;stroke-miterlimit:10;}
	.st25{fill:url(#SVGID_19_);stroke:#000000;stroke-miterlimit:10;}
	.st26{fill:url(#SVGID_20_);stroke:#000000;stroke-miterlimit:10;}
	.st27{fill:url(#SVGID_21_);stroke:#000000;stroke-miterlimit:10;}
	.st28{fill:url(#SVGID_22_);stroke:#000000;stroke-miterlimit:10;}
	.st29{fill:#FFFFFF;stroke:#000000;stroke-miterlimit:10;}
</style>
<g id="Layer_1">
	<g id="information">
		<text transform="matrix(1 0 0 1 -2119.5171 2611.4136)" style="font-family:'MyriadPro-Regular'; font-size:99.8351px;">ativar outline no illustrator - ctrl + Y</text>
	</g>
</g>
<g id="Layer_2">
	<g id="novo">
		<g id="triangulo_3_">
			<path class="st0" d="M-715.5,2984.6l-3-4.4l-22.5-33.1l-3-4.4l-49.1-72l-47.6,69.8l-3,4.3l-28.7,42.1l-3,4.3l-44.2,64.8h51.7
				h56.6h36.2h56.6h51.7L-715.5,2984.6z M-855.4,3038.2h-29.8l24.9-36.6l3-4.3l28.7-42.1l3-4.3l23.6-34.7v43.7l-9.6,14l-3,4.3
				l-30.2,44.3l-3,4.3L-855.4,3038.2z M-774.9,3038.2h-36.2h-13.4h-6.6h-2.5l0.8-1.2l3-4.3l30.2-44.3l2.1-3l4.6-6.7l4.2,6.2l3,4.3
				l21.5,31.5l3,4.3l9,13.1L-774.9,3038.2L-774.9,3038.2z M-730.6,3038.2l-15.9-23.3l-3-4.3l-21.5-31.5l-3-4.3l-10.1-14.9v-43.7
				l25.1,36.9l3,4.4l22.5,33.1l3,4.3l29.6,43.4L-730.6,3038.2L-730.6,3038.2z"/>
		</g>
		<g id="lines">
			<g>
				<g>
					
						<linearGradient id="SVGID_1_" gradientUnits="userSpaceOnUse" x1="-911.4" y1="2965.3" x2="-657.5792" y2="2965.3" gradientTransform="matrix(1 0 0 1 0 4)">
						<stop  offset="0" style="stop-color:#FFFFFF;stop-opacity:0"/>
						<stop  offset="7.140000e-002" style="stop-color:#FFFFFF;stop-opacity:0.1413"/>
						<stop  offset="0.5054" style="stop-color:#FFFFFF"/>
						<stop  offset="0.9301" style="stop-color:#FFFFFF;stop-opacity:0.1413"/>
						<stop  offset="1" style="stop-color:#FFFFFF;stop-opacity:0"/>
					</linearGradient>
					<path class="st1" d="M-707.1,2990.3l-77.6-113.7h0.2l-126.2,185.5l-0.2-0.4l252.7,0.2l-0.1,0.1L-707.1,2990.3z M-707.1,2990.3
						l48.9,71.6l0.1,0.1h-0.1l-252.7,0.2h-0.5l0.3-0.4l126.5-185.3l0.1-0.1l0.1,0.1L-707.1,2990.3z"/>
					
						<linearGradient id="SVGID_2_" gradientUnits="userSpaceOnUse" x1="-825.729" y1="3009.9502" x2="-743.5322" y2="3009.9502" gradientTransform="matrix(1 0 0 1 0 4)">
						<stop  offset="0" style="stop-color:#FFFFFF;stop-opacity:0"/>
						<stop  offset="7.140000e-002" style="stop-color:#FFFFFF;stop-opacity:0.1413"/>
						<stop  offset="0.5054" style="stop-color:#FFFFFF"/>
						<stop  offset="0.9301" style="stop-color:#FFFFFF;stop-opacity:0.1413"/>
						<stop  offset="1" style="stop-color:#FFFFFF;stop-opacity:0"/>
					</linearGradient>
					<path class="st2" d="M-766.5,3043.9l-58.7,0.1h-0.3l0.2-0.2l20.2-29.8l10.1-14.9l10.2-14.9l0.2-0.3l0.2,0.3l40.4,59.6l0.1,0.1
						h-0.1L-766.5,3043.9z M-766.5,3043.9l22.5-0.1v0.1l-40.7-59.4h0.4l-10.1,14.9l-10.2,14.9L-825,3044l-0.1-0.2L-766.5,3043.9z"/>
				</g>
			</g>
			<g>
				<g>
					
						<linearGradient id="SVGID_3_" gradientUnits="userSpaceOnUse" x1="-925.6" y1="2951.8" x2="-671.7787" y2="2951.8" gradientTransform="matrix(1 0 0 1 0 4)">
						<stop  offset="0" style="stop-color:#FFFFFF;stop-opacity:0"/>
						<stop  offset="7.140000e-002" style="stop-color:#FFFFFF;stop-opacity:0.1413"/>
						<stop  offset="0.5054" style="stop-color:#FFFFFF"/>
						<stop  offset="0.9301" style="stop-color:#FFFFFF;stop-opacity:0.1413"/>
						<stop  offset="1" style="stop-color:#FFFFFF;stop-opacity:0"/>
					</linearGradient>
					<path class="st3" d="M-721.3,2976.8l-77.7-113.7h0.2L-925,3048.6l-0.2-0.4l252.7,0.2l-0.1,0.1L-721.3,2976.8z M-721.3,2976.8
						l48.9,71.6l0.1,0.1h-0.1l-252.7,0.2h-0.5l0.3-0.4l126.5-185.3l0.1-0.1l0.1,0.1L-721.3,2976.8z"/>
					
						<linearGradient id="SVGID_4_" gradientUnits="userSpaceOnUse" x1="-891.5952" y1="2964.9502" x2="-807.5733" y2="2964.9502" gradientTransform="matrix(1 0 0 1 0 4)">
						<stop  offset="0" style="stop-color:#FFFFFF;stop-opacity:0"/>
						<stop  offset="7.140000e-002" style="stop-color:#FFFFFF;stop-opacity:0.1413"/>
						<stop  offset="0.5054" style="stop-color:#FFFFFF"/>
						<stop  offset="0.9301" style="stop-color:#FFFFFF;stop-opacity:0.1413"/>
						<stop  offset="1" style="stop-color:#FFFFFF;stop-opacity:0"/>
					</linearGradient>
					<path class="st4" d="M-861.2,3030.4l-29.8,0.1h-0.2l0.1-0.2l41.5-61.1l41.6-61.1l0.5-0.7v0.8l-0.1,43.7v0.1v0.1l-26.7,39.1
						L-861.2,3030.4z M-861.2,3030.4l26.6-39.2l26.6-39.2v0.1l-0.1-43.7l0.5,0.1l-41.6,61l-41.7,61l-0.1-0.2L-861.2,3030.4z"/>
					
						<linearGradient id="SVGID_5_" gradientUnits="userSpaceOnUse" x1="-839.9326" y1="2996.4502" x2="-757.7344" y2="2996.4502" gradientTransform="matrix(1 0 0 1 0 4)">
						<stop  offset="0" style="stop-color:#FFFFFF;stop-opacity:0"/>
						<stop  offset="7.140000e-002" style="stop-color:#FFFFFF;stop-opacity:0.1413"/>
						<stop  offset="0.5054" style="stop-color:#FFFFFF"/>
						<stop  offset="0.9301" style="stop-color:#FFFFFF;stop-opacity:0.1413"/>
						<stop  offset="1" style="stop-color:#FFFFFF;stop-opacity:0"/>
					</linearGradient>
					<path class="st5" d="M-780.7,3030.4l-58.7,0.1h-0.3l0.2-0.2l20.2-29.8l10.1-14.9l10.2-14.9l0.2-0.3l0.2,0.3l40.4,59.6l0.1,0.1
						h-0.1L-780.7,3030.4z M-780.7,3030.4l22.5-0.1v0.1l-40.7-59.4h0.4l-10.1,14.9l-10.2,14.9l-20.4,29.7l-0.1-0.2L-780.7,3030.4z"
						/>
					
						<linearGradient id="SVGID_6_" gradientUnits="userSpaceOnUse" x1="-790" y1="2965.0498" x2="-705.978" y2="2965.0498" gradientTransform="matrix(1 0 0 1 0 4)">
						<stop  offset="0" style="stop-color:#FFFFFF;stop-opacity:0"/>
						<stop  offset="7.140000e-002" style="stop-color:#FFFFFF;stop-opacity:0.1413"/>
						<stop  offset="0.5054" style="stop-color:#FFFFFF"/>
						<stop  offset="0.9301" style="stop-color:#FFFFFF;stop-opacity:0.1413"/>
						<stop  offset="1" style="stop-color:#FFFFFF;stop-opacity:0"/>
					</linearGradient>
					<path class="st6" d="M-736.4,3030.4l-26.8-39.1l-26.7-39.1v-0.1v-0.1l-0.1-43.7v-0.8l0.5,0.7l41.6,61.1l41.5,61.1l0.1,0.2h-0.2
						L-736.4,3030.4z M-736.4,3030.4l29.8-0.1l-0.1,0.2l-41.7-61l-41.6-61l0.5-0.1l-0.1,43.7v-0.1l26.6,39.2L-736.4,3030.4z"/>
				</g>
			</g>
			<g>
				
					<linearGradient id="SVGID_7_" gradientUnits="userSpaceOnUse" x1="-811.3" y1="3063.2998" x2="-613.9" y2="3063.2998" gradientTransform="matrix(1 0 0 1 0 4)">
					<stop  offset="0" style="stop-color:#FFFFFF;stop-opacity:0"/>
					<stop  offset="7.140000e-002" style="stop-color:#FFFFFF;stop-opacity:0.1413"/>
					<stop  offset="0.5054" style="stop-color:#FFFFFF"/>
					<stop  offset="0.9301" style="stop-color:#FFFFFF;stop-opacity:0.1413"/>
					<stop  offset="1" style="stop-color:#FFFFFF;stop-opacity:0"/>
				</linearGradient>
				<path class="st7" d="M-811.3,3067.3c0,0,12.3-0.1,30.8-0.2c18.5,0,43.2-0.1,67.9-0.1c24.7,0,49.4,0.1,67.9,0.1
					c18.5,0.1,30.8,0.2,30.8,0.2s-12.3,0.1-30.8,0.2c-18.5,0-43.2,0.1-67.9,0.1c-24.7,0-49.4-0.1-67.9-0.1
					C-799,3067.4-811.3,3067.3-811.3,3067.3z"/>
			</g>
		</g>
		<g id="lights">
			
				<image style="overflow:visible;enable-background:new    ;" width="274" height="391" id="light-1_1_" xlink:href="EF068A30.png"  transform="matrix(0.2347 0 0 0.2357 -916.8462 2930.0476)">
			</image>
			
				<image style="overflow:visible;enable-background:new    ;" width="146" height="206" id="light-2_1_" xlink:href="EF068A31.png"  transform="matrix(0.2268 0 0 0.2295 -853.2285 2894.6074)">
			</image>
			
				<image style="overflow:visible;enable-background:new    ;" width="101" height="145" id="light-6" xlink:href="EF068A37.png"  transform="matrix(0.2162 0 0 0.2152 -856.5049 2982.5073)">
			</image>
			
				<image style="overflow:visible;enable-background:new    ;" width="186" height="260" id="light-3" xlink:href="EF068A32.png"  transform="matrix(0.2219 0 0 0.2271 -696.1885 3000.9556)">
			</image>
			
				<image style="overflow:visible;enable-background:new    ;" width="107" height="155" id="light-4" xlink:href="EF068A33.png"  transform="matrix(0.2266 0 0 0.2245 -752.2979 2912.3555)">
			</image>
			
				<image style="overflow:visible;enable-background:new    ;" width="79" height="106" id="light-5" xlink:href="EF068A3E.png"  transform="matrix(0.1944 0 0 0.206 -762.3457 2985.145)">
			</image>
		</g>
		<g id="boxes">
			<g id="caixa1_3_">
				<polygon class="st8" points="-964.5,2938 -985.7,2938 -985.7,2968.5 -985.2,2968.5 -964.5,2968.5 -888.7,2968.5 -868,2938.2 
					-868,2938 				"/>
			</g>
			<g id="caixa2_3_">
				<polygon class="st8" points="-985.9,2973.8 -1034.4,2973.8 -1034.4,3004.3 -1033.8,3004.3 -985.9,3004.3 -910,3004.3 
					-889.4,2974 -889.4,2973.8 				"/>
			</g>
			<g id="caixa3_3_">
				<polygon class="st8" points="-659.6,2896.6 -638.5,2896.6 -638.5,2927.1 -639,2927.1 -659.6,2927.1 -735.5,2927.1 
					-756.1,2896.8 -756.1,2896.6 				"/>
			</g>
			<g id="caixa4_3_">
				<polygon class="st8" points="-637.1,2931.8 -616,2931.8 -616,2962.3 -616.5,2962.3 -637.1,2962.3 -713,2962.3 -733.6,2932 
					-733.6,2931.8 				"/>
			</g>
			<g id="caixa5_3_">
				<polygon class="st8" points="-586.8,3008.1 -565.6,3008.1 -565.6,3038.6 -566.1,3038.6 -586.8,3038.6 -662.6,3038.6 
					-683.3,3008.3 -683.3,3008.1 				"/>
			</g>
		</g>
		<g id="texts">
			<g id="thougts_1_">
				<text transform="matrix(1 0 0 1 -975.688 2957.4502)" class="st0" style="font-family:'Dosis-Medium'; font-size:12px;">THOUGHTS</text>
			</g>
			<g id="projects_3_">
				<text transform="matrix(1 0 0 1 -1024.355 2992.7827)" class="st0" style="font-family:'Dosis-Medium'; font-size:12px;">PROJECTS</text>
			</g>
			<g id="inspirations_3_">
				<text transform="matrix(1 0 0 1 -714.7676 2916.0273)" class="st0" style="font-family:'Dosis-Medium'; font-size:12px;">INSPIRATIONS</text>
			</g>
			<g id="internship_3_">
				<text transform="matrix(1 0 0 1 -683.3643 2951.2065)" class="st0" style="font-family:'Dosis-Medium'; font-size:12px;">INTERNSHIP</text>
			</g>
			<g id="about_3_">
				<text transform="matrix(1 0 0 1 -608.2891 3027.4819)" class="st0" style="font-family:'Dosis-Medium'; font-size:12px;">ABOUT</text>
			</g>
		</g>
		<g id="light-pathes">
			
				<linearGradient id="light-path-6_2_" gradientUnits="userSpaceOnUse" x1="-877.3911" y1="2978.4502" x2="-793.3701" y2="2978.4502" gradientTransform="matrix(1 0 0 1 0 4)">
				<stop  offset="0" style="stop-color:#FFFFFF;stop-opacity:0"/>
				<stop  offset="7.140000e-002" style="stop-color:#FFFFFF;stop-opacity:0.1413"/>
				<stop  offset="0.5054" style="stop-color:#FFFFFF"/>
				<stop  offset="0.9301" style="stop-color:#FFFFFF;stop-opacity:0.1413"/>
				<stop  offset="1" style="stop-color:#FFFFFF;stop-opacity:0"/>
			</linearGradient>
			<path id="light-path-6" class="st9" d="M-847,3043.9l-29.8,0.1h-0.2l0.1-0.2l41.5-61.1l41.6-61.1l0.5-0.7v0.8l-0.1,43.7v0.1v0.1
				l-26.7,39.1L-847,3043.9z M-847,3043.9l26.6-39.2l26.6-39.2v0.1l-0.1-43.7l0.5,0.1l-41.6,61l-41.7,61l-0.1-0.2L-847,3043.9z"/>
			
				<linearGradient id="light-path-5_2_" gradientUnits="userSpaceOnUse" x1="-775.8" y1="2978.5498" x2="-691.7795" y2="2978.5498" gradientTransform="matrix(1 0 0 1 0 4)">
				<stop  offset="0" style="stop-color:#FFFFFF;stop-opacity:0"/>
				<stop  offset="7.140000e-002" style="stop-color:#FFFFFF;stop-opacity:0.1413"/>
				<stop  offset="0.5054" style="stop-color:#FFFFFF"/>
				<stop  offset="0.9301" style="stop-color:#FFFFFF;stop-opacity:0.1413"/>
				<stop  offset="1" style="stop-color:#FFFFFF;stop-opacity:0"/>
			</linearGradient>
			<path id="light-path-5" class="st10" d="M-722.2,3043.9l-26.8-39.1l-26.7-39.1v-0.1v-0.1l-0.1-43.7v-0.8l0.5,0.7l41.6,61.1
				l41.5,61.1l0.1,0.2h-0.2L-722.2,3043.9z M-722.2,3043.9l29.8-0.1l-0.1,0.2l-41.7-61l-41.6-61l0.5-0.1l-0.1,43.7v-0.1l26.6,39.2
				L-722.2,3043.9z"/>
			<g id="light-path-1">
				
					<linearGradient id="SVGID_8_" gradientUnits="userSpaceOnUse" x1="-964.4146" y1="2978.9502" x2="-814.3329" y2="2978.9502" gradientTransform="matrix(1 0 0 1 0 4)">
					<stop  offset="0" style="stop-color:#FFFFFF;stop-opacity:0"/>
					<stop  offset="7.140000e-002" style="stop-color:#FFFFFF;stop-opacity:0.1413"/>
					<stop  offset="0.5054" style="stop-color:#FFFFFF"/>
					<stop  offset="0.9301" style="stop-color:#FFFFFF;stop-opacity:0.1413"/>
					<stop  offset="1" style="stop-color:#FFFFFF;stop-opacity:0"/>
				</linearGradient>
				<path class="st11" d="M-964.2,3092.7c0,0,9.3-13.8,23.3-34.4c14-20.6,32.7-48.1,51.3-75.5c18.7-27.4,37.5-54.8,51.5-75.4
					c14.1-20.5,23.5-34.2,23.5-34.2s-9.3,13.8-23.3,34.4c-14,20.6-32.7,48.1-51.3,75.5c-18.7,27.4-37.5,54.8-51.5,75.4
					C-954.8,3079.1-964.2,3092.7-964.2,3092.7z"/>
			</g>
			<g id="light-path-2">
				
					<linearGradient id="SVGID_9_" gradientUnits="userSpaceOnUse" x1="-911.2388" y1="2914.25" x2="-770.7412" y2="2914.25" gradientTransform="matrix(1 0 0 1 0 4)">
					<stop  offset="0" style="stop-color:#FFFFFF;stop-opacity:0"/>
					<stop  offset="7.140000e-002" style="stop-color:#FFFFFF;stop-opacity:0.1413"/>
					<stop  offset="0.5054" style="stop-color:#FFFFFF"/>
					<stop  offset="0.9301" style="stop-color:#FFFFFF;stop-opacity:0.1413"/>
					<stop  offset="1" style="stop-color:#FFFFFF;stop-opacity:0"/>
				</linearGradient>
				<path class="st12" d="M-911,3021c0,0,8.7-12.9,21.8-32.2c13.1-19.3,30.6-45,48-70.7c17.5-25.7,35.1-51.3,48.2-70.6
					c13.2-19.2,22-32,22-32s-8.7,12.9-21.8,32.2c-13.1,19.3-30.6,45-48,70.7c-17.5,25.7-35.1,51.3-48.2,70.6
					C-902.2,3008.2-911,3021-911,3021z"/>
			</g>
			<g id="light-path-3">
				
					<linearGradient id="SVGID_10_" gradientUnits="userSpaceOnUse" x1="-736.5254" y1="3033" x2="-605.9551" y2="3033" gradientTransform="matrix(1 0 0 1 0 4)">
					<stop  offset="0" style="stop-color:#FFFFFF;stop-opacity:0"/>
					<stop  offset="7.140000e-002" style="stop-color:#FFFFFF;stop-opacity:0.1413"/>
					<stop  offset="0.5054" style="stop-color:#FFFFFF"/>
					<stop  offset="0.9301" style="stop-color:#FFFFFF;stop-opacity:0.1413"/>
					<stop  offset="1" style="stop-color:#FFFFFF;stop-opacity:0"/>
				</linearGradient>
				<path class="st13" d="M-736.3,2941.6c0,0,8.2,11.9,20.5,29.7c12.2,17.9,28.5,41.7,44.8,65.5c16.2,23.9,32.4,47.8,44.6,65.7
					c12.1,17.9,20.2,29.9,20.2,29.9s-8.2-11.9-20.5-29.7c-12.2-17.9-28.5-41.7-44.8-65.5c-16.2-23.9-32.4-47.8-44.6-65.7
					C-728.2,2953.6-736.3,2941.6-736.3,2941.6z"/>
			</g>
			<g id="light-path-4">
				
					<linearGradient id="SVGID_11_" gradientUnits="userSpaceOnUse" x1="-776.9063" y1="2926" x2="-703.1973" y2="2926" gradientTransform="matrix(1 0 0 1 0 4)">
					<stop  offset="0" style="stop-color:#FFFFFF;stop-opacity:0"/>
					<stop  offset="7.140000e-002" style="stop-color:#FFFFFF;stop-opacity:0.1413"/>
					<stop  offset="0.5054" style="stop-color:#FFFFFF"/>
					<stop  offset="0.9301" style="stop-color:#FFFFFF;stop-opacity:0.1413"/>
					<stop  offset="1" style="stop-color:#FFFFFF;stop-opacity:0"/>
				</linearGradient>
				<path class="st14" d="M-776.7,2876.5l9.2,13.3l9.2,13.3l18.3,26.7l18.2,26.8c6,8.9,12.1,17.8,18.1,26.8l0.1,0.1h-0.1l-8-0.1
					l8-0.1l-0.1,0.1c-6.2-8.9-12.2-17.8-18.4-26.7l-18.3-26.7l-18.2-26.8l-9.1-13.4L-776.7,2876.5z"/>
			</g>
		</g>
	</g>
</g>
<g id="Layer_3">
	<g id="novo_-_componentes">
		<g>
			<g id="light-pathes_1_">
				
					<linearGradient id="light-path-6_3_" gradientUnits="userSpaceOnUse" x1="-2058.9399" y1="2973.05" x2="-1974.9189" y2="2973.05" gradientTransform="matrix(1 0 0 1 0 4)">
					<stop  offset="0" style="stop-color:#FFFFFF;stop-opacity:0"/>
					<stop  offset="7.140000e-002" style="stop-color:#FFFFFF;stop-opacity:0.1413"/>
					<stop  offset="0.5054" style="stop-color:#FFFFFF"/>
					<stop  offset="0.9301" style="stop-color:#FFFFFF;stop-opacity:0.1413"/>
					<stop  offset="1" style="stop-color:#FFFFFF;stop-opacity:0"/>
				</linearGradient>
				<path id="light-path-6_1_" class="st15" d="M-2028.6,3038.5l-29.8,0.1h-0.2l0.1-0.2l41.5-61.1l41.6-61.1l0.5-0.7v0.8l-0.1,43.7
					v0.1v0.1l-26.7,39.1L-2028.6,3038.5z M-2028.6,3038.5l26.6-39.2l26.6-39.2v0.1l-0.1-43.7l0.5,0.1l-41.6,61l-41.7,61l-0.1-0.2
					L-2028.6,3038.5z"/>
				
					<linearGradient id="light-path-5_3_" gradientUnits="userSpaceOnUse" x1="-1957.4" y1="2973.1494" x2="-1873.3795" y2="2973.1494" gradientTransform="matrix(1 0 0 1 0 4)">
					<stop  offset="0" style="stop-color:#FFFFFF;stop-opacity:0"/>
					<stop  offset="7.140000e-002" style="stop-color:#FFFFFF;stop-opacity:0.1413"/>
					<stop  offset="0.5054" style="stop-color:#FFFFFF"/>
					<stop  offset="0.9301" style="stop-color:#FFFFFF;stop-opacity:0.1413"/>
					<stop  offset="1" style="stop-color:#FFFFFF;stop-opacity:0"/>
				</linearGradient>
				<path id="light-path-5_1_" class="st16" d="M-1903.8,3038.5l-26.8-39.1l-26.7-39.1v-0.1v-0.1l-0.1-43.7v-0.8l0.5,0.7l41.6,61.1
					l41.5,61.1l0.1,0.2h-0.2L-1903.8,3038.5z M-1903.8,3038.5l29.8-0.1l-0.1,0.2l-41.7-61l-41.6-61l0.5-0.1l-0.1,43.7v-0.1
					l26.6,39.2L-1903.8,3038.5z"/>
				<g id="light-path-1_1_">
					
						<linearGradient id="SVGID_12_" gradientUnits="userSpaceOnUse" x1="-2145.9634" y1="2973.55" x2="-1995.882" y2="2973.55" gradientTransform="matrix(1 0 0 1 0 4)">
						<stop  offset="0" style="stop-color:#FFFFFF;stop-opacity:0"/>
						<stop  offset="7.140000e-002" style="stop-color:#FFFFFF;stop-opacity:0.1413"/>
						<stop  offset="0.5054" style="stop-color:#FFFFFF"/>
						<stop  offset="0.9301" style="stop-color:#FFFFFF;stop-opacity:0.1413"/>
						<stop  offset="1" style="stop-color:#FFFFFF;stop-opacity:0"/>
					</linearGradient>
					<path class="st17" d="M-2145.7,3087.3c0,0,9.3-13.8,23.3-34.4s32.7-48.1,51.3-75.5c18.7-27.4,37.5-54.8,51.5-75.4
						c14.1-20.5,23.5-34.2,23.5-34.2s-9.3,13.8-23.3,34.4s-32.7,48.1-51.3,75.5c-18.7,27.4-37.5,54.8-51.5,75.4
						C-2136.3,3073.6-2145.7,3087.3-2145.7,3087.3z"/>
				</g>
				<g id="light-path-2_1_">
					
						<linearGradient id="SVGID_13_" gradientUnits="userSpaceOnUse" x1="-2092.7876" y1="2908.75" x2="-1952.2902" y2="2908.75" gradientTransform="matrix(1 0 0 1 0 4)">
						<stop  offset="0" style="stop-color:#FFFFFF;stop-opacity:0"/>
						<stop  offset="7.140000e-002" style="stop-color:#FFFFFF;stop-opacity:0.1413"/>
						<stop  offset="0.5054" style="stop-color:#FFFFFF"/>
						<stop  offset="0.9301" style="stop-color:#FFFFFF;stop-opacity:0.1413"/>
						<stop  offset="1" style="stop-color:#FFFFFF;stop-opacity:0"/>
					</linearGradient>
					<path class="st18" d="M-2092.6,3015.5c0,0,8.7-12.9,21.8-32.2c13.1-19.3,30.6-45,48-70.7c17.5-25.7,35.1-51.3,48.2-70.6
						c13.2-19.2,22-32,22-32s-8.7,12.9-21.8,32.2c-13.1,19.3-30.6,45-48,70.7c-17.5,25.7-35.1,51.3-48.2,70.6
						C-2083.8,3002.7-2092.6,3015.5-2092.6,3015.5z"/>
				</g>
				<g id="light-path-3_1_">
					
						<linearGradient id="SVGID_14_" gradientUnits="userSpaceOnUse" x1="-1918.0743" y1="3027.6001" x2="-1787.504" y2="3027.6001" gradientTransform="matrix(1 0 0 1 0 4)">
						<stop  offset="0" style="stop-color:#FFFFFF;stop-opacity:0"/>
						<stop  offset="7.140000e-002" style="stop-color:#FFFFFF;stop-opacity:0.1413"/>
						<stop  offset="0.5054" style="stop-color:#FFFFFF"/>
						<stop  offset="0.9301" style="stop-color:#FFFFFF;stop-opacity:0.1413"/>
						<stop  offset="1" style="stop-color:#FFFFFF;stop-opacity:0"/>
					</linearGradient>
					<path class="st19" d="M-1917.8,2936.2c0,0,8.2,11.9,20.5,29.7c12.2,17.9,28.5,41.7,44.8,65.5c16.2,23.9,32.4,47.8,44.6,65.7
						c12.1,17.9,20.2,29.9,20.2,29.9s-8.2-11.9-20.5-29.7c-12.2-17.9-28.5-41.7-44.8-65.5c-16.2-23.9-32.4-47.8-44.6-65.7
						S-1917.8,2936.2-1917.8,2936.2z"/>
				</g>
				<g id="light-path-4_1_">
					
						<linearGradient id="SVGID_15_" gradientUnits="userSpaceOnUse" x1="-1958.4552" y1="2920.6001" x2="-1884.7462" y2="2920.6001" gradientTransform="matrix(1 0 0 1 0 4)">
						<stop  offset="0" style="stop-color:#FFFFFF;stop-opacity:0"/>
						<stop  offset="7.140000e-002" style="stop-color:#FFFFFF;stop-opacity:0.1413"/>
						<stop  offset="0.5054" style="stop-color:#FFFFFF"/>
						<stop  offset="0.9301" style="stop-color:#FFFFFF;stop-opacity:0.1413"/>
						<stop  offset="1" style="stop-color:#FFFFFF;stop-opacity:0"/>
					</linearGradient>
					<path class="st20" d="M-1958.2,2871.1l9.2,13.3l9.2,13.3l18.3,26.7l18.2,26.8c6,8.9,12.1,17.8,18.1,26.8l0.1,0.1h-0.1l-8-0.1
						l8-0.1l-0.1,0.1c-6.2-8.9-12.2-17.8-18.4-26.7l-18.3-26.7l-18.2-26.8l-9.1-13.4L-1958.2,2871.1z"/>
				</g>
			</g>
			<text transform="matrix(1 0 0 1 -2029.3734 3129.4097)" style="font-family:'MyriadPro-Regular'; font-size:24px;">LIGHT PATH</text>
			
				<text transform="matrix(1 0 0 1 -2029.3734 3129.4097)" style="fill:none;stroke:#000000; font-family:'MyriadPro-Regular'; font-size:24px;">LIGHT PATH</text>
		</g>
		<g>
			<g id="boxes_1_">
				<g id="caixa1_2_">
					<polygon class="st21" points="-1558,2895.1 -1579.2,2895.1 -1579.2,2925.6 -1578.7,2925.6 -1558,2925.6 -1482.2,2925.6 
						-1461.5,2895.3 -1461.5,2895.1 					"/>
				</g>
				<g id="caixa2_2_">
					<polygon class="st21" points="-1579.4,2930.9 -1627.8,2930.9 -1627.8,2961.4 -1627.3,2961.4 -1579.4,2961.4 -1503.5,2961.4 
						-1482.9,2931.1 -1482.9,2930.9 					"/>
				</g>
				<g id="caixa3_2_">
					<polygon class="st21" points="-1253.1,2853.7 -1232,2853.7 -1232,2884.2 -1232.5,2884.2 -1253.1,2884.2 -1329,2884.2 
						-1349.6,2853.9 -1349.6,2853.7 					"/>
				</g>
				<g id="caixa4_2_">
					<polygon class="st21" points="-1230.6,2888.8 -1209.5,2888.8 -1209.5,2919.4 -1210,2919.4 -1230.6,2919.4 -1306.5,2919.4 
						-1327.1,2889.1 -1327.1,2888.8 					"/>
				</g>
				<g id="caixa5_2_">
					<polygon class="st21" points="-1180.3,2965.1 -1159.1,2965.1 -1159.1,2995.6 -1159.6,2995.6 -1180.3,2995.6 -1256.1,2995.6 
						-1276.8,2965.3 -1276.8,2965.1 					"/>
				</g>
			</g>
			<text transform="matrix(1 0 0 1 -1455.7947 3082.7744)" style="font-family:'MyriadPro-Regular'; font-size:24px;">BOXES</text>
			
				<text transform="matrix(1 0 0 1 -1455.7947 3082.7744)" style="fill:none;stroke:#000000; font-family:'MyriadPro-Regular'; font-size:24px;">BOXES</text>
		</g>
		<g>
			<g id="texts_1_">
				<g id="thougts_2_">
					<text transform="matrix(1 0 0 1 -2111.8904 3291.9868)" class="st0" style="font-family:'Dosis-Medium'; font-size:12px;">THOUGHTS</text>
					
						<text transform="matrix(1 0 0 1 -2111.8904 3291.9868)" style="fill:none;stroke:#000000;stroke-miterlimit:10; font-family:'Dosis-Medium'; font-size:12px;">THOUGHTS</text>
				</g>
				<g id="projects_1_">
					<text transform="matrix(1 0 0 1 -2160.5574 3327.3193)" class="st0" style="font-family:'Dosis-Medium'; font-size:12px;">PROJECTS</text>
					
						<text transform="matrix(1 0 0 1 -2160.5574 3327.3193)" style="fill:none;stroke:#000000;stroke-miterlimit:10; font-family:'Dosis-Medium'; font-size:12px;">PROJECTS</text>
				</g>
				<g id="inspirations_1_">
					<text transform="matrix(1 0 0 1 -1850.97 3250.564)" class="st0" style="font-family:'Dosis-Medium'; font-size:12px;">INSPIRATIONS</text>
					
						<text transform="matrix(1 0 0 1 -1850.97 3250.564)" style="fill:none;stroke:#000000;stroke-miterlimit:10; font-family:'Dosis-Medium'; font-size:12px;">INSPIRATIONS</text>
				</g>
				<g id="internship_1_">
					<text transform="matrix(1 0 0 1 -1819.5667 3285.7432)" class="st0" style="font-family:'Dosis-Medium'; font-size:12px;">INTERNSHIP</text>
					
						<text transform="matrix(1 0 0 1 -1819.5667 3285.7432)" style="fill:none;stroke:#000000;stroke-miterlimit:10; font-family:'Dosis-Medium'; font-size:12px;">INTERNSHIP</text>
				</g>
				<g id="about_1_">
					<text transform="matrix(1 0 0 1 -1744.4915 3362.0186)" class="st0" style="font-family:'Dosis-Medium'; font-size:12px;">ABOUT</text>
					
						<text transform="matrix(1 0 0 1 -1744.4915 3362.0186)" style="fill:none;stroke:#000000;stroke-miterlimit:10; font-family:'Dosis-Medium'; font-size:12px;">ABOUT</text>
				</g>
			</g>
			<text transform="matrix(1 0 0 1 -1983.4463 3387.7744)" style="font-family:'MyriadPro-Regular'; font-size:24px;">TEXTS</text>
			
				<text transform="matrix(1 0 0 1 -1983.4463 3387.7744)" style="fill:none;stroke:#000000; font-family:'MyriadPro-Regular'; font-size:24px;">TEXTS</text>
		</g>
		<g>
			<g id="lights_1_">
				
					<image style="overflow:visible;enable-background:new    ;" width="278" height="391" id="light-1_2_" xlink:href="EF068A3F.png"  transform="matrix(0.2313 0 0 0.2357 -1501.1572 3179.4097)">
				</image>
				
					<image style="overflow:visible;enable-background:new    ;" width="146" height="206" id="light-2_2_" xlink:href="EF068A34.png"  transform="matrix(0.2268 0 0 0.2295 -1437.5397 3143.9692)">
				</image>
				
					<image style="overflow:visible;enable-background:new    ;" width="101" height="140" id="light-6_1_" xlink:href="EF068A35.png"  transform="matrix(0.2162 0 0 0.2229 -1440.8159 3231.8691)">
				</image>
				
					<image style="overflow:visible;enable-background:new    ;" width="182" height="260" id="light-3_1_" xlink:href="8BF1F94F.png"  transform="matrix(0.2268 0 0 0.2271 -1280.4995 3250.3174)">
				</image>
				
					<image style="overflow:visible;enable-background:new    ;" width="107" height="150" id="light-4_1_" xlink:href="8BF1F94D.png"  transform="matrix(0.2266 0 0 0.232 -1336.609 3161.7173)">
				</image>
				
					<image style="overflow:visible;enable-background:new    ;" width="74" height="106" id="light-5_1_" xlink:href="8BF1F94B.png"  transform="matrix(0.2075 0 0 0.206 -1346.6567 3234.5068)">
				</image>
			</g>
			<text transform="matrix(1 0 0 1 -1404.4194 3362.0181)" style="font-family:'MyriadPro-Regular'; font-size:24px;">LIGHTS</text>
			
				<text transform="matrix(1 0 0 1 -1404.4194 3362.0181)" style="fill:none;stroke:#000000; font-family:'MyriadPro-Regular'; font-size:24px;">LIGHTS</text>
		</g>
		<g>
			<g id="lines_1_">
				<g>
					<g>
						
							<linearGradient id="SVGID_16_" gradientUnits="userSpaceOnUse" x1="-2083.5" y1="3580.2002" x2="-1829.6791" y2="3580.2002" gradientTransform="matrix(1 0 0 1 0 4)">
							<stop  offset="0" style="stop-color:#FFFFFF;stop-opacity:0"/>
							<stop  offset="7.140000e-002" style="stop-color:#FFFFFF;stop-opacity:0.1413"/>
							<stop  offset="0.5054" style="stop-color:#FFFFFF"/>
							<stop  offset="0.9301" style="stop-color:#FFFFFF;stop-opacity:0.1413"/>
							<stop  offset="1" style="stop-color:#FFFFFF;stop-opacity:0"/>
						</linearGradient>
						<path class="st22" d="M-1879.2,3605.2l-77.6-113.7h0.2l-126.2,185.5l-0.2-0.4l252.7,0.2l-0.1,0.1L-1879.2,3605.2z
							 M-1879.2,3605.2l48.9,71.6l0.1,0.1h-0.1l-252.7,0.2h-0.5l0.3-0.4l126.5-185.3l0.1-0.1l0.1,0.1L-1879.2,3605.2z"/>
						
							<linearGradient id="SVGID_17_" gradientUnits="userSpaceOnUse" x1="-1997.835" y1="3624.8501" x2="-1915.6382" y2="3624.8501" gradientTransform="matrix(1 0 0 1 0 4)">
							<stop  offset="0" style="stop-color:#FFFFFF;stop-opacity:0"/>
							<stop  offset="7.140000e-002" style="stop-color:#FFFFFF;stop-opacity:0.1413"/>
							<stop  offset="0.5054" style="stop-color:#FFFFFF"/>
							<stop  offset="0.9301" style="stop-color:#FFFFFF;stop-opacity:0.1413"/>
							<stop  offset="1" style="stop-color:#FFFFFF;stop-opacity:0"/>
						</linearGradient>
						<path class="st23" d="M-1938.6,3658.8l-58.7,0.1h-0.3l0.2-0.2l20.2-29.8l10.1-14.9l10.2-14.9l0.2-0.3l0.2,0.3l40.4,59.6
							l0.1,0.1h-0.1L-1938.6,3658.8z M-1938.6,3658.8l22.5-0.1v0.1l-40.7-59.4h0.4l-10.1,14.9l-10.2,14.9l-20.4,29.7l-0.1-0.2
							L-1938.6,3658.8z"/>
					</g>
				</g>
				<g>
					<g>
						
							<linearGradient id="SVGID_18_" gradientUnits="userSpaceOnUse" x1="-2097.7" y1="3566.7002" x2="-1843.8787" y2="3566.7002" gradientTransform="matrix(1 0 0 1 0 4)">
							<stop  offset="0" style="stop-color:#FFFFFF;stop-opacity:0"/>
							<stop  offset="7.140000e-002" style="stop-color:#FFFFFF;stop-opacity:0.1413"/>
							<stop  offset="0.5054" style="stop-color:#FFFFFF"/>
							<stop  offset="0.9301" style="stop-color:#FFFFFF;stop-opacity:0.1413"/>
							<stop  offset="1" style="stop-color:#FFFFFF;stop-opacity:0"/>
						</linearGradient>
						<path class="st24" d="M-1893.4,3591.7l-77.7-113.7h0.2l-126.2,185.5l-0.2-0.4l252.7,0.2l-0.1,0.1L-1893.4,3591.7z
							 M-1893.4,3591.7l48.9,71.6l0.1,0.1h-0.1l-252.7,0.2h-0.5l0.3-0.4l126.5-185.3l0.1-0.1l0.1,0.1L-1893.4,3591.7z"/>
						
							<linearGradient id="SVGID_19_" gradientUnits="userSpaceOnUse" x1="-2063.7012" y1="3579.7502" x2="-1979.6793" y2="3579.7502" gradientTransform="matrix(1 0 0 1 0 4)">
							<stop  offset="0" style="stop-color:#FFFFFF;stop-opacity:0"/>
							<stop  offset="7.140000e-002" style="stop-color:#FFFFFF;stop-opacity:0.1413"/>
							<stop  offset="0.5054" style="stop-color:#FFFFFF"/>
							<stop  offset="0.9301" style="stop-color:#FFFFFF;stop-opacity:0.1413"/>
							<stop  offset="1" style="stop-color:#FFFFFF;stop-opacity:0"/>
						</linearGradient>
						<path class="st25" d="M-2033.4,3645.2l-29.8,0.1h-0.2l0.1-0.2l41.5-61.1l41.6-61.1l0.5-0.7v0.8l-0.1,43.7v0.1v0.1l-26.7,39.1
							L-2033.4,3645.2z M-2033.4,3645.2l26.6-39.2l26.6-39.2v0.1l-0.1-43.7l0.5,0.1l-41.6,61l-41.7,61l-0.1-0.2L-2033.4,3645.2z"/>
						
							<linearGradient id="SVGID_20_" gradientUnits="userSpaceOnUse" x1="-2012.0386" y1="3611.2502" x2="-1929.8403" y2="3611.2502" gradientTransform="matrix(1 0 0 1 0 4)">
							<stop  offset="0" style="stop-color:#FFFFFF;stop-opacity:0"/>
							<stop  offset="7.140000e-002" style="stop-color:#FFFFFF;stop-opacity:0.1413"/>
							<stop  offset="0.5054" style="stop-color:#FFFFFF"/>
							<stop  offset="0.9301" style="stop-color:#FFFFFF;stop-opacity:0.1413"/>
							<stop  offset="1" style="stop-color:#FFFFFF;stop-opacity:0"/>
						</linearGradient>
						<path class="st26" d="M-1952.8,3645.2l-58.7,0.1h-0.3l0.2-0.2l20.2-29.8l10.1-14.9l10.2-14.9l0.2-0.3l0.2,0.3l40.4,59.6
							l0.1,0.1h-0.1L-1952.8,3645.2z M-1952.8,3645.2l22.5-0.1v0.1l-40.7-59.4h0.4l-10.1,14.9l-10.2,14.9l-20.4,29.7l-0.1-0.2
							L-1952.8,3645.2z"/>
						
							<linearGradient id="SVGID_21_" gradientUnits="userSpaceOnUse" x1="-1962.1" y1="3579.8496" x2="-1878.0779" y2="3579.8496" gradientTransform="matrix(1 0 0 1 0 4)">
							<stop  offset="0" style="stop-color:#FFFFFF;stop-opacity:0"/>
							<stop  offset="7.140000e-002" style="stop-color:#FFFFFF;stop-opacity:0.1413"/>
							<stop  offset="0.5054" style="stop-color:#FFFFFF"/>
							<stop  offset="0.9301" style="stop-color:#FFFFFF;stop-opacity:0.1413"/>
							<stop  offset="1" style="stop-color:#FFFFFF;stop-opacity:0"/>
						</linearGradient>
						<path class="st27" d="M-1908.5,3645.2l-26.8-39.1l-26.7-39.1v-0.1v-0.1l-0.1-43.7v-0.8l0.5,0.7l41.6,61.1l41.5,61.1l0.1,0.2
							h-0.2L-1908.5,3645.2z M-1908.5,3645.2l29.8-0.1l-0.1,0.2l-41.7-61l-41.6-61l0.5-0.1l-0.1,43.7v-0.1l26.6,39.2L-1908.5,3645.2
							z"/>
					</g>
				</g>
				<g>
					
						<linearGradient id="SVGID_22_" gradientUnits="userSpaceOnUse" x1="-1983.4" y1="3678.2002" x2="-1785.9999" y2="3678.2002" gradientTransform="matrix(1 0 0 1 0 4)">
						<stop  offset="0" style="stop-color:#FFFFFF;stop-opacity:0"/>
						<stop  offset="7.140000e-002" style="stop-color:#FFFFFF;stop-opacity:0.1413"/>
						<stop  offset="0.5054" style="stop-color:#FFFFFF"/>
						<stop  offset="0.9301" style="stop-color:#FFFFFF;stop-opacity:0.1413"/>
						<stop  offset="1" style="stop-color:#FFFFFF;stop-opacity:0"/>
					</linearGradient>
					<path class="st28" d="M-1983.4,3682.2c0,0,12.3-0.1,30.8-0.2c18.5,0,43.2-0.1,67.9-0.1c24.7,0,49.4,0.1,67.9,0.1
						c18.5,0.1,30.8,0.2,30.8,0.2s-12.3,0.1-30.8,0.2c-18.5,0-43.2,0.1-67.9,0.1c-24.7,0-49.4-0.1-67.9-0.1
						C-1971.1,3682.3-1983.4,3682.2-1983.4,3682.2z"/>
				</g>
			</g>
			<text transform="matrix(1 0 0 1 -2011.7795 3751.0181)" style="font-family:'MyriadPro-Regular'; font-size:24px;">LINES</text>
			
				<text transform="matrix(1 0 0 1 -2011.7795 3751.0181)" style="fill:none;stroke:#000000; font-family:'MyriadPro-Regular'; font-size:24px;">LINES</text>
		</g>
		<g>
			<g id="triangulo_2_">
				<path class="st29" d="M-1286,3591.7l-3-4.4l-22.5-33.1l-3-4.4l-49.1-72l-47.6,69.8l-3,4.3l-28.7,42.1l-3,4.3l-44.2,64.8h51.7
					h56.6h36.2h56.6h51.7L-1286,3591.7z M-1426,3645.3h-29.8l24.9-36.6l3-4.3l28.7-42.1l3-4.3l23.6-34.7v43.7l-9.6,14l-3,4.3
					l-30.2,44.3l-3,4.3L-1426,3645.3z M-1345.5,3645.3h-36.2h-13.3h-6.6h-2.5l0.8-1.2l3-4.3l30.2-44.3l2.1-3l4.6-6.7l4.2,6.2l3,4.3
					l21.5,31.5l3,4.3l9,13.1L-1345.5,3645.3L-1345.5,3645.3z M-1301.2,3645.3l-15.9-23.3l-3-4.3l-21.5-31.5l-3-4.3l-10.1-14.9v-43.7
					l25.1,36.9l3,4.4l22.5,33.1l3,4.3l29.6,43.4L-1301.2,3645.3L-1301.2,3645.3z"/>
			</g>
			<text transform="matrix(1 0 0 1 -1388.6404 3721.0181)" style="font-family:'MyriadPro-Regular'; font-size:24px;">TRIANGLE</text>
			
				<text transform="matrix(1 0 0 1 -1388.6404 3721.0181)" style="fill:none;stroke:#000000; font-family:'MyriadPro-Regular'; font-size:24px;">TRIANGLE</text>
		</g>
	</g>
</g>
</svg>
