<?xml version="1.0" encoding="utf-8"?>
<!-- Generator: Adobe Illustrator 19.0.0, SVG Export Plug-In . SVG Version: 6.00 Build 0)  -->
<svg version="1.1" id="Layer_1" xmlns="http://www.w3.org/2000/svg" xmlns:xlink="http://www.w3.org/1999/xlink" x="0px" y="0px"
	 viewBox="0 0 379.4 284.4" style="enable-background:new 0 0 379.4 284.4;" xml:space="preserve">
<style type="text/css">
	.st0{fill-rule:evenodd;clip-rule:evenodd;fill:#B3B3B3;}
	.st1{fill:none;stroke:#B3B3B3;stroke-miterlimit:10;}
</style>
<g id="Icon_19_">
	<g id="XMLID_114_">
		<path id="XMLID_115_" class="st0" d="M272.8,118.4c6.3,0,11.8-2.2,16.5-6.9c4.6-4.6,6.9-10.3,6.9-16.9c0-6.4-2.4-11.9-6.9-16.6
			c-4.7-4.6-10.2-6.9-16.5-6.9c-6.7,0-12.4,2.3-17,6.9c-4.6,4.7-6.8,10.2-6.8,16.6c0,6.6,2.2,12.3,6.8,16.9
			C260.4,116.1,266.1,118.4,272.8,118.4z M303.7,207.6c0-1.8-5.4-12.5-16.3-32.2c-10.9-19.6-17.8-31.2-20.6-35c-2.4-3-5-4.6-7.8-4.6
			c-3.8,0-9.2,4.2-16,12.5c-6.8,8.3-12.6,12.4-17.1,12.4c-3.6,0-6.3-1.3-8.1-4l-66.9-78.2c-1.7-2.1-3.7-3.2-6.1-3.2
			c-2.6,0-4.9,1.6-7.1,4.6l-12.8,25.3c-6.2,11.6-15.2,29.3-27,53c-1.9,3.8-4.8,9.5-8.9,17.1c-4.1,7.6-7.6,14.4-10.6,20.4
			c-3,6.1-5.3,12-7.2,17.5h225C301.1,213.3,303.7,211.5,303.7,207.6z M372.5,6.9C367.8,2.4,362.2,0,355.6,0H23.8
			C17.2,0,11.5,2.4,6.9,6.9C2.2,11.5,0,17,0,23.4v241.2c0,6.3,2.2,11.2,6.9,14.7c4.6,3.3,10.3,5.1,16.9,5.1h331.8
			c6.6,0,12.2-2.4,16.9-6.9c4.6-4.7,6.9-10.3,6.9-16.9V23.4C379.4,17,377.1,11.5,372.5,6.9z M331.8,236.8H47.3V47.2h284.4V236.8z"/>
	</g>
	<g id="XMLID_100_">
		<path id="XMLID_101_" class="st1" d="M272.8,118.4c6.3,0,11.8-2.2,16.5-6.9c4.6-4.6,6.9-10.3,6.9-16.9c0-6.4-2.4-11.9-6.9-16.6
			c-4.7-4.6-10.2-6.9-16.5-6.9c-6.7,0-12.4,2.3-17,6.9c-4.6,4.7-6.8,10.2-6.8,16.6c0,6.6,2.2,12.3,6.8,16.9
			C260.4,116.1,266.1,118.4,272.8,118.4z M303.7,207.6c0-1.8-5.4-12.5-16.3-32.2c-10.9-19.6-17.8-31.2-20.6-35c-2.4-3-5-4.6-7.8-4.6
			c-3.8,0-9.2,4.2-16,12.5c-6.8,8.3-12.6,12.4-17.1,12.4c-3.6,0-6.3-1.3-8.1-4l-66.9-78.2c-1.7-2.1-3.7-3.2-6.1-3.2
			c-2.6,0-4.9,1.6-7.1,4.6l-12.8,25.3c-6.2,11.6-15.2,29.3-27,53c-1.9,3.8-4.8,9.5-8.9,17.1c-4.1,7.6-7.6,14.4-10.6,20.4
			c-3,6.1-5.3,12-7.2,17.5h225C301.1,213.3,303.7,211.5,303.7,207.6z M372.5,6.9C367.8,2.4,362.2,0,355.6,0H23.8
			C17.2,0,11.5,2.4,6.9,6.9C2.2,11.5,0,17,0,23.4v241.2c0,6.3,2.2,11.2,6.9,14.7c4.6,3.3,10.3,5.1,16.9,5.1h331.8
			c6.6,0,12.2-2.4,16.9-6.9c4.6-4.7,6.9-10.3,6.9-16.9V23.4C379.4,17,377.1,11.5,372.5,6.9z M331.8,236.8H47.3V47.2h284.4V236.8z"/>
	</g>
</g>
</svg>
